<svg width="25" height="25" viewBox="0 0 25 25" fill="none" xmlns="http://www.w3.org/2000/svg">
<path d="M3.7 9.3C2.85131 9.3 2.03737 9.63714 1.43726 10.2373C0.837142 10.8374 0.5 11.6513 0.5 12.5V15.7C0.5 16.5487 0.837142 17.3626 1.43726 17.9627C2.03737 18.5629 2.85131 18.9 3.7 18.9H4.5C4.71217 18.9 4.91566 18.8157 5.06569 18.6657C5.21571 18.5157 5.3 18.3122 5.3 18.1V10.1C5.3 9.88783 5.21571 9.68434 5.06569 9.53431C4.91566 9.38429 4.71217 9.3 4.5 9.3H3.7ZM3.7 9.3C3.7 6.96609 4.62714 4.72778 6.27746 3.07746C7.92778 1.42714 10.1661 0.5 12.5 0.5C14.8339 0.5 17.0722 1.42714 18.7225 3.07746C20.3729 4.72778 21.3 6.96609 21.3 9.3M21.3 18.9H20.5C20.2878 18.9 20.0843 18.8157 19.9343 18.6657C19.7843 18.5157 19.7 18.3122 19.7 18.1V10.1C19.7 9.88783 19.7843 9.68434 19.9343 9.53431C20.0843 9.38429 20.2878 9.3 20.5 9.3H21.3M21.3 18.9C22.1487 18.9 22.9626 18.5629 23.5627 17.9627C24.1629 17.3626 24.5 16.5487 24.5 15.7V12.5C24.5 11.6513 24.1629 10.8374 23.5627 10.2373C22.9626 9.63714 22.1487 9.3 21.3 9.3M21.3 18.9V19.7C21.3 20.5487 20.9629 21.3626 20.3627 21.9627C19.7626 22.5629 18.9487 22.9 18.1 22.9H15.7" stroke="white" stroke-linecap="round" stroke-linejoin="round"/>
<path d="M9.30005 8.49975C9.30006 7.7638 9.55375 7.05034 10.0184 6.47958C10.483 5.90883 11.1302 5.51568 11.8508 5.36636C12.5715 5.21705 13.3216 5.3207 13.9747 5.65985C14.6279 5.999 15.1441 6.55292 15.4366 7.22829C15.6691 7.76695 15.7502 8.35895 15.6691 8.94029C15.5885 9.52127 15.3498 10.0689 14.979 10.5234C14.6082 10.9779 14.1197 11.3217 13.5667 11.5174C13.2546 11.6277 12.9845 11.8321 12.7934 12.1024C12.6024 12.3728 12.4999 12.6957 12.5 13.0267V13.2998M14.1 24.4998H12.5C12.0757 24.4998 11.6687 24.3312 11.3687 24.0311C11.0686 23.7311 10.9 23.3241 10.9 22.8998C10.9 22.4754 11.0686 22.0684 11.3687 21.7684C11.6687 21.4683 12.0757 21.2998 12.5 21.2998H14.1C14.5244 21.2998 14.9314 21.4683 15.2314 21.7684C15.5315 22.0684 15.7 22.4754 15.7 22.8998C15.7 23.3241 15.5315 23.7311 15.2314 24.0311C14.9314 24.3312 14.5244 24.4998 14.1 24.4998Z" stroke="white" stroke-linecap="round" stroke-linejoin="round"/>
<path d="M12.5 17.3C12.3939 17.3 12.2921 17.2579 12.2171 17.1828C12.1421 17.1078 12.1 17.0061 12.1 16.9C12.1 16.7939 12.1421 16.6922 12.2171 16.6172C12.2921 16.5421 12.3939 16.5 12.5 16.5M12.5 17.3C12.6061 17.3 12.7078 17.2579 12.7828 17.1828C12.8578 17.1078 12.9 17.0061 12.9 16.9C12.9 16.7939 12.8578 16.6922 12.7828 16.6172C12.7078 16.5421 12.6061 16.5 12.5 16.5" stroke="white"/>
</svg>
