<svg xmlns="http://www.w3.org/2000/svg" width="224.384" height="67" viewBox="0 0 224.384 67"><defs><style>.a,.c{fill:#1268b3;}.a{fill-rule:evenodd;}.b{fill:#62b948;}</style></defs><g transform="translate(0 0)"><path class="a" d="M479.414,339.121h4.146v-8.809h2.074c3.112,0,5.962-.777,7.514-2.591a6.805,6.805,0,0,0,2.072-5.183c0-2.332-.774-4.144-2.331-5.181a10.717,10.717,0,0,0-6.995-2.073,38.191,38.191,0,0,0-6.481.519v23.318Zm4.146-20.209a6.509,6.509,0,0,1,2.593-.259c2.85,0,4.663,1.3,4.663,3.886,0,2.85-1.813,4.405-5.182,4.405h-2.074v-8.032ZM508.7,339.639c6.479,0,11.4-4.664,11.4-12.437,0-6.736-4.147-12.176-11.143-12.176-6.478,0-11.141,5.181-11.141,12.436,0,7,4.146,12.177,10.883,12.177Zm.259-3.627c-4.144,0-6.736-3.887-6.736-8.55s2.331-8.81,6.736-8.81c4.145,0,6.477,4.145,6.477,8.55,0,4.923-2.332,8.81-6.477,8.81Zm23.06,3.109,2.85-11.142a38.775,38.775,0,0,0,1.556-7.513h0c.517,2.591.777,4.922,1.554,7.513l2.332,11.142h4.663l6.218-23.577h-4.4l-2.33,10.622c-.519,2.851-1.3,5.7-1.556,8.292h-.26c-.258-2.591-.777-5.182-1.294-8.032l-2.334-10.881h-4.663l-2.592,10.622c-.516,3.109-1.294,5.96-1.554,8.292h0c-.52-2.332-1.036-5.441-1.556-8.292l-2.331-10.622h-4.663l5.7,23.577Zm35.5-13.991h-9.068v-5.959h9.587v-3.627H554.3v23.577h14.253v-3.369H558.443v-7h9.068v-3.626Zm4.665,13.991h4.405v-9.586h2.073c2.59,0,3.627,1.035,4.4,4.144a24.684,24.684,0,0,0,1.555,5.442h4.4c-.519-.778-1.037-3.627-1.814-6.478-.518-2.331-1.555-3.887-3.368-4.664h0a6.212,6.212,0,0,0,4.406-5.959,5.688,5.688,0,0,0-2.074-4.663c-1.554-1.554-3.886-2.073-7.255-2.073a47.51,47.51,0,0,0-6.736.519v23.318Zm4.405-20.209a6.493,6.493,0,0,1,2.589-.259c2.85,0,4.664,1.036,4.664,3.628,0,2.332-1.814,3.885-4.664,3.885h-2.589v-7.254Zm-211.947-3.627h24.1V322.8h-7v17.359h-10.1V322.8h-7v-7.513Zm36.274,10.1,5.183,14.768h9.585l-9.585-24.872H395.467l-9.327,24.872h9.586l5.182-14.768Zm12.437-10.1h24.1V322.8h-7v17.359H420.6V322.8h-7.255v-7.513Zm36.016,10.1,5.182,14.768h9.845l-9.845-24.872H444.179l-9.329,24.872h9.588Z" transform="translate(-364.634 -315.026)"/><rect class="b" width="224.383" height="1.218" transform="translate(0 30.006)"/><path class="b" d="M424.426,396.68l12.33-17.738v-.136h-11.2v-4.844h18.786v3.385l-12.063,17.515V395h12.254v4.845h-20.1Z" transform="translate(-382.862 -333.659)"/><path class="c" d="M488.286,398.953a16.878,16.878,0,0,1-6.616,1.116c-8.962,0-13.582-5.6-13.582-12.978,0-8.825,6.324-13.71,14.137-13.71a14.869,14.869,0,0,1,6.371,1.148l-1.193,4.627a12.283,12.283,0,0,0-4.916-.972c-4.617,0-8.236,2.815-8.236,8.566,0,5.189,3.059,8.449,8.269,8.449a14.1,14.1,0,0,0,4.892-.836Z" transform="translate(-396.172 -333.482)"/><path class="c" d="M508.551,373.961v9.954H518.2v-9.954h5.852v25.882H518.2V389.012h-9.649v10.831H502.7V373.961Z" transform="translate(-406.724 -333.659)"/><path class="c" d="M545.934,393.2l-1.826,6.646h-6.051l7.9-25.882h7.658l8.058,25.882h-6.306l-1.99-6.646Zm6.576-4.36-1.612-5.5c-.445-1.53-.9-3.469-1.3-4.984h-.081c-.38,1.522-.77,3.487-1.185,4.99l-1.548,5.494Z" transform="translate(-417.502 -333.659)"/><path class="c" d="M577,374.228a49.538,49.538,0,0,1,7.777-.557c3.839,0,6.528.586,8.376,2.051a6.574,6.574,0,0,1,2.395,5.426,6.868,6.868,0,0,1-4.569,6.361v.122c1.8.725,2.806,2.441,3.458,4.819a74.743,74.743,0,0,0,2.089,7.305h-5.991a32.73,32.73,0,0,1-1.78-6.033c-.721-3.235-1.808-4.1-4.217-4.129H582.8v10.162H577Zm5.8,11.131h2.291c2.9,0,4.64-1.48,4.64-3.73,0-2.369-1.624-3.581-4.3-3.6a12.136,12.136,0,0,0-2.634.2Z" transform="translate(-429.373 -333.57)"/><path class="c" d="M630.611,398.534a28.7,28.7,0,0,1-8.641,1.454c-4.729,0-8.14-1.184-10.521-3.472a12.708,12.708,0,0,1-3.66-9.423c.031-8.609,6.3-13.506,14.779-13.506a18.154,18.154,0,0,1,7.195,1.243l-1.224,4.689a14.3,14.3,0,0,0-6.022-1.1c-4.879,0-8.588,2.742-8.588,8.372,0,5.345,3.373,8.475,8.164,8.475a8.4,8.4,0,0,0,2.863-.365v-5.439h-4V384.9h9.656Z" transform="translate(-438.76 -333.545)"/><path class="c" d="M662.582,388.894h-9.524v6.156H663.7v4.794h-16.5V373.961h15.944v4.794H653.059v5.392h9.524Z" transform="translate(-450.777 -333.659)"/><g transform="translate(11.456 39.276)"><path class="b" d="M391.209,392.936a2.708,2.708,0,1,1,3.23-3.983l9.268-.072a13.776,13.776,0,0,0-.154-5.9l-8.967.027a2.709,2.709,0,1,1-.03-2.773L407.4,380.2a13.861,13.861,0,1,0,.4,11.425l-13.288.1A2.705,2.705,0,0,1,391.209,392.936Z" transform="translate(-381.114 -372.486)"/></g></g></svg>