<svg width="60" height="60" viewBox="0 0 60 60" fill="none" xmlns="http://www.w3.org/2000/svg">
<path d="M26.25 6.66211H33.75C34.4694 6.66211 35.1593 6.94834 35.668 7.45703C36.1767 7.96572 36.4629 8.6556 36.4629 9.375V16.875C36.4629 17.5944 36.1767 18.2843 35.668 18.793C35.1593 19.3017 34.4694 19.5879 33.75 19.5879H30.8379V27.2871H54.375C54.5971 27.2871 54.8097 27.3761 54.9668 27.5332C55.1239 27.6903 55.2129 27.9029 55.2129 28.125C55.2129 28.3471 55.1239 28.5597 54.9668 28.7168C54.8097 28.8739 54.5971 28.9629 54.375 28.9629H45.8379V38.5371H48.75C49.4694 38.5371 50.1593 38.8233 50.668 39.332C51.1767 39.8407 51.4629 40.5306 51.4629 41.25V48.75C51.4629 49.4694 51.1767 50.1593 50.668 50.668C50.1593 51.1767 49.4694 51.4629 48.75 51.4629H41.25C40.5306 51.4629 39.8407 51.1767 39.332 50.668C38.8233 50.1593 38.5371 49.4694 38.5371 48.75V41.25C38.5371 40.5306 38.8233 39.8407 39.332 39.332C39.8407 38.8233 40.5306 38.5371 41.25 38.5371H44.1621V28.9629H15.8379V38.5371H18.75C19.4694 38.5371 20.1593 38.8233 20.668 39.332C21.1767 39.8407 21.4629 40.5306 21.4629 41.25V48.75C21.4629 49.4694 21.1767 50.1593 20.668 50.668C20.1593 51.1767 19.4694 51.4629 18.75 51.4629H11.25C10.5306 51.4629 9.84072 51.1767 9.33203 50.668C8.82334 50.1593 8.53711 49.4694 8.53711 48.75V41.25C8.53711 40.5306 8.82334 39.8407 9.33203 39.332C9.84072 38.8233 10.5306 38.5371 11.25 38.5371H14.1621V28.9629H5.625C5.40288 28.9629 5.19026 28.8739 5.0332 28.7168C4.87614 28.5597 4.78711 28.3471 4.78711 28.125C4.78711 27.9029 4.87614 27.6903 5.0332 27.5332C5.19026 27.3761 5.40288 27.2871 5.625 27.2871H29.1621V19.5879H26.25C25.5306 19.5879 24.8407 19.3017 24.332 18.793C23.8233 18.2843 23.5371 17.5944 23.5371 16.875V9.375C23.5371 8.6556 23.8233 7.96572 24.332 7.45703C24.8407 6.94834 25.5306 6.66211 26.25 6.66211ZM11.25 40.2129C10.9748 40.2129 10.7112 40.322 10.5166 40.5166C10.322 40.7112 10.2129 40.9748 10.2129 41.25V48.75C10.2129 49.0252 10.322 49.2888 10.5166 49.4834C10.7112 49.678 10.9748 49.7871 11.25 49.7871H18.75C19.0252 49.7871 19.2888 49.678 19.4834 49.4834C19.678 49.2888 19.7871 49.0252 19.7871 48.75V41.25C19.7871 40.9748 19.678 40.7112 19.4834 40.5166C19.2888 40.322 19.0252 40.2129 18.75 40.2129H11.25ZM41.25 40.2129C40.9748 40.2129 40.7112 40.322 40.5166 40.5166C40.322 40.7112 40.2129 40.9748 40.2129 41.25V48.75C40.2129 49.0252 40.322 49.2888 40.5166 49.4834C40.7112 49.678 40.9748 49.7871 41.25 49.7871H48.75C49.0252 49.7871 49.2888 49.678 49.4834 49.4834C49.678 49.2888 49.7871 49.0252 49.7871 48.75V41.25C49.7871 40.9748 49.678 40.7112 49.4834 40.5166C49.2888 40.322 49.0252 40.2129 48.75 40.2129H41.25ZM26.25 8.33789C25.9748 8.33789 25.7112 8.44703 25.5166 8.6416C25.322 8.83617 25.2129 9.09984 25.2129 9.375V16.875C25.2129 17.1502 25.322 17.4138 25.5166 17.6084C25.7112 17.803 25.9748 17.9121 26.25 17.9121H33.75C34.0252 17.9121 34.2888 17.803 34.4834 17.6084C34.678 17.4138 34.7871 17.1502 34.7871 16.875V9.375C34.7871 9.09984 34.678 8.83617 34.4834 8.6416C34.2888 8.44703 34.0252 8.33789 33.75 8.33789H26.25Z" fill="black" stroke="white" stroke-width="0.2"/>
</svg>
