<svg width="60" height="60" viewBox="0 0 60 60" fill="none" xmlns="http://www.w3.org/2000/svg">
<path d="M43.1325 49.7925C47.768 46.7215 51.1791 42.1214 52.7713 36.7938C54.3634 31.4662 54.0359 25.7488 51.8456 20.6379C49.6553 15.527 45.7411 11.3467 40.7852 8.82527C35.8293 6.30388 30.1458 5.60131 24.725 6.83999M43.135 42.5V49.79L51.25 49.7925M16.805 10.25C12.1829 13.3315 8.78724 17.9358 7.20863 23.2619C5.63001 28.588 5.96836 34.299 8.16482 39.4015C10.3613 44.504 14.2769 48.6751 19.2305 51.1893C24.1841 53.7035 29.8624 54.4017 35.2775 53.1625M16.805 10.25V17.5M16.805 10.25H8.75003" stroke="black" stroke-width="1.5" stroke-linecap="round" stroke-linejoin="round"/>
<path d="M31.25 17.5L22.5 30H37.5L28.75 42.5" stroke="black" stroke-width="1.5" stroke-linecap="round" stroke-linejoin="round"/>
</svg>
