<svg width="60" height="60" viewBox="0 0 60 60" fill="none" xmlns="http://www.w3.org/2000/svg">
<path d="M51.833 11.8311V33.377C51.833 45.6071 42.193 55.5 30.333 55.5C18.473 55.5 8.83301 45.6071 8.83301 33.377V11.8291L30.2178 4.52734L51.833 11.8311ZM40.4258 20.9111C40.5874 20.9014 40.7497 20.924 40.9023 20.9785C41.0547 21.0329 41.195 21.1175 41.3145 21.2275C41.5632 21.4594 41.7131 21.7798 41.7324 22.1211C41.7517 22.4621 41.6386 22.797 41.418 23.0557L28.9766 37.4443L28.9736 37.4473C28.8614 37.5792 28.7226 37.6855 28.5664 37.7588C28.4102 37.8321 28.2396 37.8713 28.0674 37.873C27.8954 37.8747 27.7248 37.8395 27.5674 37.7695C27.4097 37.6994 27.2682 37.5955 27.1533 37.4658L27.1514 37.4629L18.6357 27.999C18.4105 27.7445 18.2917 27.4115 18.3047 27.0703C18.3177 26.7288 18.4618 26.4063 18.7061 26.1699C18.8234 26.0575 18.9619 25.9695 19.1133 25.9121C19.2645 25.8548 19.4256 25.8285 19.5869 25.835C19.7484 25.8415 19.9074 25.8809 20.0537 25.9502C20.2 26.0196 20.3315 26.1178 20.4395 26.2393L20.4414 26.2422L27.6582 34.2627L28.0371 34.6846L28.4072 34.2559L39.5781 21.3359L39.5811 21.333C39.6866 21.2091 39.8159 21.1076 39.9609 21.0352C40.106 20.9627 40.2642 20.9209 40.4258 20.9111ZM49.3594 13.7002L49.0195 13.5859L30.3818 7.28613L30.2207 7.23145L30.0605 7.28613L11.6445 13.5762L11.3066 13.6914V33.377C11.3066 44.1621 19.8126 52.9277 30.333 52.9277C40.8535 52.9277 49.3594 44.1621 49.3594 33.377V13.7002Z" fill="black" stroke="white"/>
</svg>
