<svg width="60" height="60" viewBox="0 0 60 60" fill="none" xmlns="http://www.w3.org/2000/svg">
<path d="M16.7041 47.0812C16.926 48.513 17.1566 49.8159 17.349 50.8455C17.6222 52.2938 18.6518 53.4567 20.1088 53.6764C21.2521 53.8502 22.8402 53.9999 24.9148 53.9999C26.8877 53.9999 28.5086 53.8644 29.7426 53.7026C31.4739 53.4753 32.6872 52.0347 32.8752 50.299L33.226 47.0615" stroke="black" stroke-width="1.5" stroke-linecap="round" stroke-linejoin="round"/>
<path d="M43.0827 6.56783C43.1768 6.39592 43.3155 6.25251 43.4842 6.15261C43.6528 6.05271 43.8452 6 44.0412 6C44.2372 6 44.4296 6.05271 44.5983 6.15261C44.7669 6.25251 44.9056 6.39592 44.9998 6.56783L47.1771 10.5486C47.7789 11.6489 48.6836 12.5536 49.7839 13.1554L53.7646 15.3327C53.9365 15.4268 54.0799 15.5655 54.1798 15.7342C54.2797 15.9028 54.3325 16.0952 54.3325 16.2912C54.3325 16.4872 54.2797 16.6796 54.1798 16.8483C54.0799 17.0169 53.9365 17.1556 53.7646 17.2498L49.7839 19.4271C48.6836 20.0289 47.7789 20.9336 47.1771 22.0339L44.9998 26.0146C44.9056 26.1865 44.7669 26.3299 44.5983 26.4298C44.4296 26.5297 44.2372 26.5825 44.0412 26.5825C43.8452 26.5825 43.6528 26.5297 43.4842 26.4298C43.3155 26.3299 43.1768 26.1865 43.0827 26.0146L40.9054 22.0339C40.3036 20.9336 39.3989 20.0289 38.2986 19.4271L34.3178 17.2498C34.1459 17.1556 34.0025 17.0169 33.9026 16.8483C33.8027 16.6796 33.75 16.4872 33.75 16.2912C33.75 16.0952 33.8027 15.9028 33.9026 15.7342C34.0025 15.5655 34.1459 15.4268 34.3178 15.3327L38.2986 13.1554C39.3989 12.5536 40.3036 11.6489 40.9054 10.5486L43.0827 6.56783Z" stroke="black" stroke-width="1.5"/>
<path d="M32.0187 9.50046C29.7657 8.5701 27.3517 8.09212 24.9141 8.09375C14.6519 8.09375 6.33301 16.4126 6.33301 26.6749C6.33301 32.6132 9.11908 37.9012 13.455 41.3026C13.7746 42.5798 14.1285 43.8482 14.5164 45.1063C14.8519 46.1971 15.758 46.9895 16.8937 47.1087C18.4162 47.2672 20.9837 47.442 24.9141 47.442C28.8446 47.442 31.4121 47.2672 32.9346 47.1087C34.0703 46.9895 34.9764 46.1971 35.3108 45.1052C35.6245 44.0854 36.0213 42.7224 36.3732 41.3026C39.1321 39.1405 41.2249 36.2438 42.411 32.9455" stroke="black" stroke-width="1.5" stroke-linecap="round" stroke-linejoin="round"/>
</svg>
